<svg height="512" viewBox="0 0 42 57" width="512" xmlns="http://www.w3.org/2000/svg"><g id="Page-1" fill="none" fill-rule="evenodd"><g id="025---Coughing-Out-Germs" fill-rule="nonzero"><path id="Shape" d="m28 43.163h3c6.0751322 0 11 4.9248678 11 11 0 1.1045695-.8954305 2-2 2h-38c-1.1045695 0-2-.8954305-2-2 0-6.0751322 4.92486775-11 11-11h3" fill="#3b96d2"/><path id="Shape" d="m33.75 18.238v-8.075h-24.75v8c-2.209139 0-4 1.790861-4 4s1.790861 4 4 4c0 0 3 9 12 9s12-9 12-9c2.0551946-.010628 3.7678868-1.5770016 3.9615222-3.6230815.1936353-2.0460799-1.1948081-3.9059364-3.2115222-4.3019185z" fill="#fcd6ac"/><path id="Shape" d="m33.75 18.233s3.877-10.667-2.584-14.667c-5.811-3.598-19.984 1.434-25.598-3.338-.30514869-.23632061-.71905403-.27593963-1.06349222-.10179749-.34443819.17414213-.55791441.53095469-.54850778.91679749.0292467 1.75799191.23189521 3.508808.605 5.227 1.13402102 4.9592471 5.8306754 8.2608471 10.881 7.649 2.3069432-.2168069 4.5628025-.8099918 6.678-1.756 5.88-3 10.338.736 11.63 6.07" fill="#ca8152"/><path id="Shape" d="m23.76 30.66c1.92-.49 3.24-1.5 3.24-2.66 0-1.66-2.69-2-6-2s-6 .34-6 2c0 1.16 1.32 2.17 3.24 2.66z" fill="#802d40"/><path id="Shape" d="m23 29 4.67 10.28c1.1139372-.5424115 2.4463901-.3473588 3.3581165.4915817.9117265.8389405 1.2167111 2.1506038.7686381 3.3057215s-1.5577855 1.9180164-2.7967546 1.9226968c-.3840188-.0005083-.7643221-.0752108-1.12-.22-.5296893 1.391743-1.8923632 2.2867537-3.38 2.22-1.7913447.1271713-3.3517048-1.2102802-3.5-3-.1482952 1.7897198-1.7086553 3.1271713-3.5 3-1.4876368.0667537-2.8503107-.828257-3.38-2.22-.9239827.3750315-1.9740389.2654233-2.8006535-.2923409s-1.32128057-1.4904686-1.3193465-2.4876591c.0036352-1.0371049.5381447-2.0001009 1.4163575-2.5517727.8782129-.5516719 1.9777725-.615158 2.9136425-.1682273l4.67-10.28z" fill="#ebeff0"/><g fill="#26b899"><circle id="Oval" cx="19" cy="37" r="1"/><circle id="Oval" cx="17" cy="42" r="1"/><circle id="Oval" cx="25" cy="42" r="1"/><circle id="Oval" cx="23" cy="37" r="1"/></g><path id="Shape" d="m31.2 38.656c-.8773097-.5785511-1.9472913-.7880203-2.978-.583l-4.312-9.487c-.2361313-.4895656-.8200644-.7008759-1.3148077-.4757948-.4947434.225081-.7191097.8041231-.5051923 1.3037948l4.658 10.248v.013l.009.013.33.726c.1929683.4319092.6621829.6695157 1.124536.5694561.4623531-.1000597.7913411-.5104085.788464-.9834561.7109586 0 1.3679114.3792918 1.7233907.995.3554792.6157081.3554792 1.3742919 0 1.99-.3554793.6157082-1.0124321.995-1.7233907.995-.0035727-.3572656-.1974728-.6854866-.5086603-.8610254-.3111874-.1755388-.6923852-.1717268-1 .01-.3076147.1817268-.4949124.5137598-.4913397.8710254.0007452.1633021-.0245731.3256769-.075.481-.3999295.9731493-1.3748772 1.5838485-2.425 1.519-1.2367154.1179166-2.3435665-.7675642-2.5-2 0-.5522847-.4477153-1-1-1s-1 .4477153-1 1c-.1564335 1.2324358-1.2632846 2.1179166-2.5 2-1.0524571.0642966-2.0289315-.5490163-2.428-1.525-.0484301-.1536548-.0727192-.3138952-.072-.475 0-.5522847-.4477153-1-1-1s-1 .4477153-1 1c-1.1045695 0-2-.8954305-2-2s.8954305-2 2-2c.0033756.467398.3300758.8701086.7867357.9697784.4566599.0996697.9214461-.1302926 1.1192643-.5537784l.33-.726.009-.013v-.013l4.665-10.25c.2139174-.4996717-.0104489-1.0787138-.5051923-1.3037948-.4947433-.2250811-1.0786764-.0137708-1.3148077.4757948l-4.312 9.487c-1.4907841-.2887039-3.0164909.2916122-3.93857612 1.4980724-.92208519 1.2064602-1.08152649 2.830999-.41159397 4.1937087.66993249 1.3627097 2.05370269 2.2285781 3.57217009 2.2352189.1951761-.0040222.3897521-.0230787.582-.057.8709401 1.3076377 2.3470779 2.0826289 3.918 2.057 1.3286485.0117948 2.6002109-.5393367 3.5-1.517.8997891.9776633 2.1713515 1.5287948 3.5 1.517 1.5708615.0252608 3.0469937-.749153 3.919-2.056.1920029.0331015.3862095.0518202.581.056 1.7689051.0022497 3.3292374-1.1576288 3.8368515-2.8521371.5076141-1.6945082-.1580442-3.521214-1.6368515-4.4918629z" fill="#bcc2c6"/></g></g></svg>