<svg height="512" viewBox="0 0 58 59" width="512" xmlns="http://www.w3.org/2000/svg"><g id="Page-1" fill="none" fill-rule="evenodd"><g id="024---No-Physical-Contact" fill-rule="nonzero" transform="translate(-1)"><path id="Shape" d="m44.88 48.4c-.0924937.1410101-.1997674.27175-.32.39-.4717712.4655323-1.107216.7276084-1.77.73-.5769936-.0000988-1.1358361-.2017065-1.58-.57l-.06-.06c-.0477153-.0311498-.0913821-.0680987-.13-.11l-.7-.7c.8321346.8369936.965547 2.1419335.32 3.13-.0984183.14248-.2088191.2762991-.33.4-.4691285.4695073-1.1062881.7322907-1.77.73-.5731512.0052319-1.1295392-.193225-1.57-.56l-.09-.09c-.0379571-.0203087-.0718545-.0474267-.1-.08l-.71-.71c.8374059.8385298.9710367 2.1497818.32 3.14-.0917007.1446467-.1990107.2787842-.32.4-.4691285.4695073-1.1062881.7322907-1.77.73-.5759145.0036418-1.1349247-.1944884-1.58-.56-.067932-.0513071-.1314839-.1081693-.19-.17l-.7-.71c.8297172.8412016.9667074 2.1446837.33 3.14-.0984183.14248-.2088191.2762991-.33.4-.4717712.4655323-1.107216.7276084-1.77.73-.6649328-.0014644-1.3018878-.267762-1.77-.74l-1.09-1.09c.6494063-.9941072.5160537-2.3067966-.32-3.15-.9611824-.9640537-2.517036-.9818349-3.5-.04l.67-.67c.4695073-.4691285.7322907-1.1062881.73-1.77.0039928-.6611103-.2592579-1.2957968-.73-1.76-.9729168-.9753967-2.5515726-.9798688-3.53-.01l.7-.7c.472238-.4681122.7385356-1.1050672.74-1.77.0018116-1.0125444-.6073144-1.9261924-1.5426836-2.3139215-.9353692-.3877292-2.0122454-.1729627-2.7273164.5439215l-.71.71c.6507177-.62678.9126254-1.5558895.6850652-2.4302481-.2275602-.8743587-.9091774-1.5579068-1.7828889-1.7879395-.8737114-.2300327-1.803558.0292455-2.4321763.6781876l-.35.35-.35-.34c-.6930124-.7025448-1.5816397-1.1799642-2.55-1.37l-1.76-.35 1.08-10.144 4.71-6.106 5.52.37 2.64.18.01.01-5.06 5.03c-.5601305.563022-.8731635 1.3258149-.87 2.12.0006472.7934368.3131073 1.5548338.87 2.12 1.95 1.95 4.75 1.58 6.7-.37l4.25-4.24 15.92 15.94.35.35c.8427049.8400505.9765556 2.1576436.32 3.15z" fill="#fcd6ac"/><path id="Shape" d="m14.45 23.13-.22.61-5.79 16.25-.57 1.6c-.19220491.5317354-.77462891.8118324-1.31.63l-4.85-2.3c-.54215242-.1816316-.8366737-.7662117-.66-1.31l5.96-17.9c.17016572-.5076076.69877147-.8022404 1.22-.68l5.47 1.74c.2901468.0643736.5386195.2503695.6821406.510621.143521.2602515.1682391.5696415.0678594.849379z" fill="#3b96d2"/><path id="Shape" d="m51.8 40.67-7.59 4.23-15.92-15.94-4.25 4.24c-1.95 1.95-4.75 2.32-6.7.37-.5568927-.5651662-.8693528-1.3265632-.87-2.12-.0031635-.7941851.3098695-1.556978.87-2.12l5.06-5.03 1.74-1.72c.02-.02.05-.04.07-.06 3.4744329 1.9000888 7.6599435 1.9748301 11.2.2l10.85 2.41 3.648 6.927z" fill="#fcd6ac"/><path id="Shape" d="m44.88 48.4-16.59-16.61-2.84 2.83c-1.332049 1.3927347-3.1632537 2.1986087-5.09 2.24-1.6708232.0015449-3.2702652-.6772251-4.43-1.88-1.9452544-1.9513488-1.9452544-5.1086512 0-7.06l3.82-3.81 2.64.18.01.01-5.06 5.03c-.5601305.563022-.8731635 1.3258149-.87 2.12.0006472.7934368.3131073 1.5548338.87 2.12 1.95 1.95 4.75 1.58 6.7-.37l4.25-4.24 15.92 15.94.35.35c.8427049.8400505.9765556 2.1576436.32 3.15z" fill="#f8c694"/><path id="Shape" d="m27.61 54.79c-.001569.4897897-.1438857.9688071-.41 1.38-.0924937.1410101-.1997674.27175-.32.39l-.71.7c-.6175136.6908004-1.5664506.9834102-2.4657638.7603315-.8993131-.2230787-1.601489-.9252546-1.8245677-1.8245677-.2230787-.8993132.0695311-1.8482502.7603315-2.4657638-.977544.9775439-2.562456.9775439-3.5399999-.0000001-.977544-.9775439-.977544-2.5624559-.0000001-3.5399999-.6286183.6489421-1.5584649.9082203-2.4321763.6781876-.8737115-.2300327-1.5553287-.9135808-1.7828889-1.7879395-.2275602-.8743586.0343475-1.8034681.6850652-2.4302481-.977544.9775439-2.562456.9775439-3.5399999-.0000001-.977544-.9775439-.977544-2.5624559-.0000001-3.5399999l1.07-1.06.35-.35c.6286183-.6489421 1.5584649-.9082203 2.4321763-.6781876.8737115.2300327 1.5553287.9135808 1.7828889 1.7879395.2275602.8743586-.0343475 1.8034681-.6850652 2.4302481l.71-.71c.6286183-.6489421 1.5584649-.9082203 2.4321763-.6781876.8737115.2300327 1.5553287.9135808 1.7828889 1.7879395.2275602.8743586-.0343475 1.8034681-.6850652 2.4302481l-.7.7c.9784274-.9698688 2.5570832-.9653967 3.53.01.4707421.4642032.7339928 1.0988897.73 1.76.0022907.6637119-.2604927 1.3008715-.73 1.77l-.67.67c.982964-.9418349 2.5388176-.9240537 3.5.04.4655323.4717712.7276084 1.107216.73 1.77z" fill="#fcd6ac"/><path id="Shape" d="m36.07 50.9c.8374059.8385298.9710367 2.1497818.32 3.14l-7.28-7.29c-.3899779-.3930079-.3899779-1.0269921 0-1.42.3900375-.3877236 1.0199625-.3877236 1.41 0z" fill="#f8c694"/><path id="Shape" d="m40.32 48.08c.8321346.8369936.965547 2.1419335.32 3.13l-7.99-8c-.3397768-.3967603-.3169323-.9881942.0524368-1.3575632.369369-.3693691.9608029-.3922136 1.3575632-.0524368z" fill="#f8c694"/><path id="Shape" d="m30 0c-4.8564787-.00202227-9.2357878 2.92216065-11.095216 7.40857524-1.8594282 4.48641456-.8326492 9.65119136 2.6014001 13.08524066s8.5988261 4.4608283 13.0852407 2.6014001 7.4105975-6.2387373 7.4085752-11.095216c0-6.627417-5.372583-12-12-12zm-5.88 15.06c-.2471249.241669-.6006725.3401791-.9371618.2611244-.3364892-.0790547-.6091825-.3246937-.7228382-.6511244-1.0334636-2.9068659-.3019785-6.14897114 1.8795252-8.33047482s5.4236089-2.9129888 8.3304748-1.87952518c.3264307.11365573.5720697.386349.6511244.72283824.0790547.33648923-.0194554.69003682-.2611244.93716176zm13.66-1.18c-.5307191 2.2033248-1.9717239 4.0778287-3.9645329 5.1571874-1.9928091 1.0793588-4.3501081 1.2621181-6.4854671.5028126-.3264307-.1136557-.5720697-.386349-.6511244-.7228382-.0790547-.3364893.0194554-.6900369.2611244-.9371618l8.94-8.94c.2471249-.24166901.6006725-.34017912.9371618-.26112442.3364892.0790547.6091825.32469368.7228382.65112442.5185433 1.4615006.6019133 3.0420577.24 4.55z" fill="#e54c3c"/><path id="Shape" d="m29.61 54.79c.0001111.8734029-.2534981 1.728031-.73 2.46-.0701398.1080197-.1469559.2115545-.23.31-.1287856-.0889599-.2492748-.1893676-.36-.3l-1.09-1.09c.6494063-.9941072.5160537-2.3067966-.32-3.15-.9611824-.9640537-2.517036-.9818349-3.5-.04l.67-.67c.4695073-.4691285.7322907-1.1062881.73-1.77.0039928-.6611103-.2592579-1.2957968-.73-1.76-.9729168-.9753967-2.5515726-.9798688-3.53-.01l.7-.7c.472238-.4681122.7385356-1.1050672.74-1.77.0018116-1.0125444-.6073144-1.9261924-1.5426836-2.3139215-.9353692-.3877292-2.0122454-.1729627-2.7273164.5439215l-.71.71c.6507177-.62678.9126254-1.5558895.6850652-2.4302481-.2275602-.8743587-.9091774-1.5579068-1.7828889-1.7879395-.8737114-.2300327-1.803558.0292455-2.4321763.6781876l-.35.35-.35-.34c-.3605395-.3650399-.775461-.6720144-1.23-.91l.52-.51c.8393999-.850866 1.984774-1.3298534 3.18-1.3298534s2.3406001.4789874 3.18 1.3298534c.4306256.4316669.7706197.9450581 1 1.51h.06c1.1942885-.0026629 2.340429.4705878 3.1849206 1.3150794s1.3177423 1.9906321 1.3150794 3.1849206v.07c1.7022749.6850456 2.8181085 2.3350549 2.82 4.17v.06c.5654686.2329422 1.0788107.5763036 1.51 1.01.8459304.8419149 1.3210455 1.9865102 1.32 3.18z" fill="#f8c694"/><path id="Shape" d="m58.29 39.92-4.85 2.3c-.5353711.1818324-1.1177951-.0982646-1.31-.63l-.33-.92-5.54-15.54-.71-2c-.1003797-.2797375-.0756616-.5891275.0678594-.849379.1435211-.2602515.3919938-.4462474.6821406-.510621l5.47-1.74c.5212285-.1222404 1.0498343.1723924 1.22.68l5.96 17.9c.1766737.5437883-.1178476 1.1283684-.66 1.31z" fill="#945ba4"/></g></g></svg>