<svg height="512" viewBox="0 0 59 58" width="512" xmlns="http://www.w3.org/2000/svg"><g id="Page-1" fill="none" fill-rule="evenodd"><g id="032---High-Temperature" fill-rule="nonzero"><path id="Shape" d="m31.913 45c2.9178694-.0015929 5.716688 1.1568209 7.7799336 3.2200664 2.0632455 2.0632456 3.2216593 4.8620642 3.2200664 7.7799336-.0081672 1.1011688-.8988312 1.9918328-2 2h-38c-1.10320187-.0032948-1.9967052-.8967981-2-2-.00159287-2.9178694 1.15682085-5.716688 3.22006641-7.7799336 2.06324555-2.0632455 4.86206418-3.2216593 7.77993359-3.2200664z" fill="#3b96d2"/><path id="Shape" d="m26.983 35.91c-.7762032 1.2176298-1.1504735 2.6482518-1.07 4.09 0 3 3 5 3 5 .0000001 2.5008592-1.3341924 4.8117484-3.5 6.0621779-2.1658075 1.2504296-4.8341925 1.2504296-7 0-2.1658076-1.2504295-3.5000001-3.5613187-3.5-6.0621779.5556115-.3956234 1.0595272-.8592258 1.5-1.38.9167282-.9885153 1.4488914-2.2728026 1.5-3.62.0804735-1.4417482-.2937968-2.8723702-1.07-4.09z" fill="#f8c694"/><path id="Shape" d="m34.685 20.235v-8.075h-24.75v8c-2.209139 0-4 1.790861-4 4s1.790861 4 4 4c0 0 3 9 12 9s12-9 12-9c2.0551946-.010628 3.7678868-1.5770016 3.9615222-3.6230815.1936353-2.0460799-1.1948081-3.9059364-3.2115222-4.3019185z" fill="#fcd6ac"/><path id="Shape" d="m34.685 20.23s3.877-10.667-2.585-14.667c-5.81-3.597-19.983 1.437-25.6-3.338-.30529135-.23644677-.71943665-.27599226-1.06395834-.10159418-.3445217.17439808-.55784666.53157119-.54804166.91759418.0316581 1.75821651.23665033 3.5090244.612 5.227 1.13486319 4.9585692 5.8311034 8.2594464 10.881 7.648 2.3069432-.2168069 4.5628025-.8099918 6.678-1.756 5.88-3 10.338.737 11.63 6.07" fill="#ca8152"/><path id="Shape" d="m38.913 38.809c.0706856 1.1170795-.4851502 2.1809191-1.4425014 2.760869-.9573511.57995-2.1576461.57995-3.1149972 0-.9573512-.5799499-1.513187-1.6437895-1.4425014-2.760869 0-1.431 1.359-3.344 2.247-4.442.1811912-.2316398.4589129-.3669949.753-.3669949s.5718088.1353551.753.3669949c.888 1.098 2.247 3.011 2.247 4.442z" fill="#3b96d2"/><path id="Shape" d="m58.913 21c.0055747 2.7585896-1.8705426 5.1655249-4.5470325 5.8335441-2.6764898.6680193-5.4635991-.5750315-6.754949-3.0127072-1.2913498-2.4376758-.7541489-5.4417678 1.3019815-7.2808369v-12.54c0-2.209139 1.790861-4 4-4s4 1.790861 4 4v12.54c1.2750457 1.131331 2.0033305 2.7554062 2 4.46z" fill="#9ec8d2"/><g fill="#de4d60"><path id="Shape" d="m44.913 16h-2c-.5522847 0-1-.4477153-1-1s.4477153-1 1-1h2c.5522847 0 1 .4477153 1 1s-.4477153 1-1 1z"/><path id="Shape" d="m44.913 12h-2c-.5522847 0-1-.4477153-1-1s.4477153-1 1-1h2c.5522847 0 1 .4477153 1 1s-.4477153 1-1 1z"/><path id="Shape" d="m44.913 8h-2c-.5522847 0-1-.44771525-1-1s.4477153-1 1-1h2c.5522847 0 1 .44771525 1 1s-.4477153 1-1 1z"/><path id="Shape" d="m44.913 4h-2c-.5522847 0-1-.44771525-1-1s.4477153-1 1-1h2c.5522847 0 1 .44771525 1 1s-.4477153 1-1 1z"/></g><path id="Shape" d="m29.913 12.809c.0706856 1.1170795-.4851502 2.1809191-1.4425014 2.760869-.9573511.57995-2.1576461.57995-3.1149972 0-.9573512-.5799499-1.513187-1.6437895-1.4425014-2.760869 0-1.431 1.359-3.344 2.247-4.442.1811912-.23163977.4589129-.36699491.753-.36699491s.5718088.13535514.753.36699491c.888 1.098 2.247 3.011 2.247 4.442z" fill="#3b96d2"/><path id="Shape" d="m19.913 19.809c.0510539 1.7089575-1.2911454 3.1366102-3 3.191-1.7088546-.0543898-3.0510539-1.4820425-3-3.191 0-1.431 1.359-3.344 2.247-4.442.1811912-.2316398.4589129-.3669949.753-.3669949s.5718088.1353551.753.3669949c.888 1.098 2.247 3.011 2.247 4.442z" fill="#3b96d2"/><path id="Shape" d="m53.913 18.184v-13.184c0-.55228475-.4477153-1-1-1s-1 .44771525-1 1v13.184c-1.3775467.4870363-2.2038721 1.8956662-1.9567957 3.3357331.2470764 1.4400668 1.4956868 2.492694 2.9567957 2.492694s2.7097193-1.0526272 2.9567957-2.492694c.2470764-1.4400669-.579249-2.8486968-1.9567957-3.3357331z" fill="#ff5364"/></g></g></svg>