<svg height="512" viewBox="0 0 42 57" width="512" xmlns="http://www.w3.org/2000/svg"><g id="Page-1" fill="none" fill-rule="evenodd"><g id="030---Man-In-Mask" fill-rule="nonzero"><path id="Shape" d="m28 44h3c6.0751322 0 11 4.9248678 11 11 0 1.1045695-.8954305 2-2 2h-38c-1.1045695 0-2-.8954305-2-2 0-6.0751322 4.92486775-11 11-11h3" fill="#3b96d2"/><path id="Shape" d="m26.08 34.9h-.01c-.7774244 1.2208051-1.1517096 2.6549819-1.07 4.1 0 3 3 5 3 5 0 3.8659932-3.1340068 7-7 7s-7-3.1340068-7-7c0 0 3-2 3-5 .0817096-1.4450181-.2925756-2.8791949-1.07-4.1z" fill="#f8c694"/><path id="Shape" d="m33.75 19.076v-8.076h-24.75v8c-2.209139 0-4 1.790861-4 4s1.790861 4 4 4c0 0 3 9 12 9s12-9 12-9c2.0532742-.0131495 3.7631065-1.5788255 3.9565865-3.6230058.19348-2.0441804-1.1922411-3.9028479-3.2065865-4.3009942z" fill="#fcd6ac"/><path id="Shape" d="m33.75 19.07s3.877-10.67-2.584-14.67c-5.811-3.6-19.984 1.433-25.6-3.338-.30529135-.23644677-.71943665-.27599226-1.06395834-.10159418-.3445217.17439808-.55784666.53157119-.54804166.91759418.02935715 1.75798461.2320044 3.50878988.605 5.227 1.1344532 4.9588446 5.8309831 8.2599254 10.881 7.648 2.3074529-.2156403 4.5639981-.8078145 6.68-1.753 5.88-3 10.338.737 11.63 6.07" fill="#ca8152"/><path id="Shape" d="m31.58 29.85v.01c-2.1693284 3.7969916-6.2069998 6.1403474-10.58 6.1403474s-8.4106716-2.3433558-10.58-6.1403474v-.01c1.0558296-1.3023706 2.4502368-2.2884899 4.03-2.85 4.55-2 3.55-5 6.55-5s2 3 6.55 5c1.5797632.5615101 2.9741704 1.5476294 4.03 2.85z" fill="#65dcb8"/><g fill="#26b899"><path id="Shape" d="m22 28h-2c-.5522847 0-1-.4477153-1-1s.4477153-1 1-1h2c.5522847 0 1 .4477153 1 1s-.4477153 1-1 1z"/><path id="Shape" d="m22 32h-2c-.5522847 0-1-.4477153-1-1s.4477153-1 1-1h2c.5522847 0 1 .4477153 1 1s-.4477153 1-1 1z"/></g></g></g></svg>