<svg height="512" viewBox="0 0 58 58" width="512" xmlns="http://www.w3.org/2000/svg"><g id="Page-1" fill="none" fill-rule="evenodd"><g id="017---No-Flights" fill-rule="nonzero"><circle id="Oval" cx="29" cy="29" fill="#bf3a2b" r="29"/><path id="Shape" d="m53.83 13.99c-11.5556336-5.68785214-25.4776738-3.0776065-34.1880717 6.4099273-8.710398 9.4875338-10.12423391 23.5814209-3.4719283 34.6100727-11.06567412-5.4726512-17.45379639-17.3507663-15.91905715-29.5999961 1.53473923-12.2492298 10.65587565-22.18414784 22.72966695-24.7575926s24.453273 2.7787659 30.8493902 13.3375887z" fill="#e54c3c"/><path id="Shape" d="m53.91 31.09c-.7616418 9.1401485-6.4707669 17.1279062-14.872022 20.8077603s-18.1434444 2.4599641-25.377978-3.1777603c-.2225356-.1758018-.3587954-.4387549-.3741027-.7219404-.0153074-.2831855.091814-.5592944.2941027-.7580596l9.86-9.86 5.1-5.1.28-.28 6-6 12.42-12.42c.1987652-.2022887.4748741-.3094101.7580596-.2941027.2831855.0153073.5461386.1515671.7219404.3741027 3.8694196 4.9459216 5.7236157 11.1730197 5.19 17.43z" fill="#ebeff0"/><path id="Shape" d="m32.62 42.06c.0962912.2689827.0753587.5660199-.0577044.8188398s-.3660582.4382452-.6422956.5111602l-2.31.58c-.3719808.0898025-.762802-.0378915-1.01-.33l-5.16-6.26 5.1-5.1z" fill="#393f4a"/><path id="Shape" d="m48 31h-.71l1.28 3c.1094037.2563685.1068419.5467652-.0070679.8011636-.1139098.2543985-.328829.4497097-.5929321.5388364l-1.39.46c-.3579271.1214885-.7537978.0283425-1.02-.24l-3.56-3.56h-13.18l6-6h7.18l3.56-3.56c.2703111-.2683627.6689078-.3612396 1.03-.24l1.38.46c.2641031.0891267.4790223.2844379.5929321.5388364.1139098.2543984.1164716.5447951.0070679.8011636l-1.28 3h.71c1.1032019.0032948 1.9967052.8967981 2 2-.0081672 1.1011688-.8988312 1.9918328-2 2z" fill="#393f4a"/><path id="Shape" d="m44.42 10.76-33.66 33.66c-.1987652.2022887-.4748741.3094101-.7580596.2941027-.28318552-.0153073-.54613863-.1515671-.7219404-.3741027-7.75044084-9.9444233-6.87587404-24.105513 2.0393065-33.0206935 8.9151805-8.91518054 23.0762702-9.78974734 33.0206935-2.0393065.2225356.17580177.3587954.43875488.3741027.7219404.0153074.2831855-.091814.5592944-.2941027.7580596z" fill="#ebeff0"/><path id="Shape" d="m44.42 10.76-.4.4c-1.0029714-.1086674-2.0111611-.1620814-3.02-.16-16.0162577 0-29 12.9837423-29 29-.0020814 1.0088389.0513326 2.0170286.16 3.02l-1.4 1.4c-.1987652.2022887-.4748741.3094101-.7580596.2941027-.28318552-.0153073-.54613863-.1515671-.7219404-.3741027-7.75044084-9.9444233-6.87587404-24.105513 2.0393065-33.0206935 8.9151805-8.91518054 23.0762702-9.78974734 33.0206935-2.0393065.2225356.17580177.3587954.43875488.3741027.7219404.0153074.2831855-.091814.5592944-.2941027.7580596z" fill="#fff"/><path id="Shape" d="m28.51 26.67-7.62 7.62-1.89-2.29h-7c-1.6568542 0-3-1.3431458-3-3s1.3431458-3 3-3h7l9.6-11.64c.247198-.2921085.6380192-.4198025 1.01-.33l2.31.58c.2762374.072915.5092325.2583403.6422956.5111602s.1539956.5498571.0577044.8188398z" fill="#393f4a"/><path id="Shape" d="m15.6 26c-1.0566379 1.8970154-1.8889034 3.9105609-2.48 6h-1.12c-1.6568542 0-3-1.3431458-3-3s1.3431458-3 3-3z" fill="#464f5d"/></g></g></svg>