<svg id="Layer_1" enable-background="new 0 0 512 512" height="512" viewBox="0 0 512 512" width="512" xmlns="http://www.w3.org/2000/svg"><g><path d="m405.866 55.726h69.91v30.905h-69.91z" fill="#5297ba" transform="matrix(.707 -.707 .707 .707 78.783 332.555)"/><path d="m187.909 324.091c-2.929-2.929-7.678-2.929-10.606 0l-175.106 175.106c-2.929 2.929-2.929 7.678 0 10.606 1.464 1.465 3.384 2.197 5.303 2.197s3.839-.732 5.303-2.197l175.106-175.106c2.93-2.928 2.93-7.677 0-10.606z" fill="#4380a0"/><path d="m447.723 145.857-213.43 213.44-81.59-81.59 213.44-213.43z" fill="#bbf7ff"/><path d="m361.81 231.77-123.859 123.869-81.59-81.59 42.279-42.279z" fill="#f75632"/><path d="m179.163 226.197h301.839v30.904h-301.839z" fill="#8bf0ff" transform="matrix(.707 -.707 .707 .707 -74.191 304.191)"/><path d="m237.949 355.637 123.861-123.867h-43.701l-102.013 102.013z" fill="#e33629"/><path d="m450.655 163.327-101.983-101.983c-6.035-6.035-6.035-15.819 0-21.853 6.035-6.035 15.819-6.035 21.853 0l101.983 101.983c6.035 6.035 6.035 15.819 0 21.853-6.034 6.035-15.818 6.035-21.853 0z" fill="#29cef6"/><path d="m472.509 141.474-21.853-21.853c6.035 6.035 6.035 15.819 0 21.853-6.035 6.035-15.819 6.035-21.853 0l21.853 21.853c6.035 6.035 15.819 6.035 21.853 0 6.034-6.035 6.034-15.819 0-21.853z" fill="#22b5ed"/><path d="m434.629 4.526c6.035-6.035 15.819-6.035 21.853 0l50.991 50.991c6.035 6.035 6.035 15.819 0 21.853-6.035 6.035-15.819 6.035-21.853 0l-50.991-50.991c-6.034-6.034-6.034-15.818 0-21.853z" fill="#4380a0"/><path d="m507.474 55.517-21.853-21.853c6.035 6.035 6.035 15.819 0 21.853-6.035 6.035-15.819 6.035-21.853 0l21.853 21.853c6.035 6.035 15.819 6.035 21.853 0 6.035-6.034 6.035-15.818 0-21.853z" fill="#3b7191"/><path d="m211.724 373.12-72.845-72.845c-2.414-2.414-2.414-6.328 0-8.741l17.483-17.483 81.586 81.586-17.483 17.483c-2.413 2.414-6.327 2.414-8.741 0z" fill="#5297ba"/><g fill="#4380a0"><path d="m216.095 333.784-21.853 21.853 17.483 17.483c2.414 2.414 6.328 2.414 8.741 0l17.483-17.483z"/><g><path d="m221.398 246.408c-2.928-2.929-7.677-2.929-10.606 0s-2.929 7.677 0 10.606l16.23 16.23c1.464 1.465 3.384 2.197 5.303 2.197s3.839-.732 5.303-2.197c2.929-2.929 2.929-7.677 0-10.606z"/><path d="m249.453 218.354c-2.929-2.93-7.678-2.929-10.606 0-2.929 2.929-2.929 7.678 0 10.606l16.23 16.23c1.464 1.465 3.384 2.197 5.303 2.197s3.839-.732 5.304-2.197c2.929-2.929 2.929-7.678 0-10.606z"/><path d="m277.508 190.299c-2.93-2.929-7.679-2.929-10.606 0-2.93 2.929-2.93 7.677-.001 10.606l16.229 16.23c1.465 1.465 3.384 2.197 5.304 2.197 1.919 0 3.839-.732 5.304-2.197 2.929-2.929 2.929-7.677 0-10.606z"/><path d="m305.563 162.245c-2.929-2.929-7.678-2.93-10.606 0-2.93 2.929-2.93 7.677-.001 10.606l16.229 16.23c1.465 1.465 3.384 2.197 5.304 2.197 1.919 0 3.839-.732 5.304-2.197 2.929-2.929 2.929-7.677 0-10.606z"/><path d="m349.847 150.42-16.231-16.23c-2.928-2.93-7.677-2.929-10.606 0s-2.929 7.678 0 10.606l16.231 16.23c1.464 1.465 3.384 2.197 5.303 2.197s3.839-.732 5.304-2.197c2.927-2.929 2.927-7.677-.001-10.606z"/></g></g></g></svg>