<svg height="512" viewBox="0 0 58 58" width="512" xmlns="http://www.w3.org/2000/svg"><g id="Page-1" fill="none" fill-rule="evenodd"><g id="071---No-Energy" fill-rule="nonzero" transform="translate(-1)"><path id="Shape" d="m30.939 34.067c1.73 6.707 9.138 7.127 12.893 6.884.4407267-.0573593.8254312-.3269017 1.0298358-.721552.2044045-.3946503.202598-.8643815-.0048358-1.257448-2.666-5.745 3.283-15.616-2.666-28.088-5.191-10.884-19.191-10.884-19.191-10.884s-14 0-19.191 10.884c-5.949 12.472 0 22.343-2.666 28.088-.20743385.3930665-.20924029.8627977-.00483576 1.257448s.5891091.6641927 1.02983576.721552c3.755.243 11.163-.177 12.893-6.884z" fill="#e47e25"/><path id="Shape" d="m30 45h3c6.0751322 0 11 4.9248678 11 11 0 1.1045695-.8954305 2-2 2h-38c-1.1045695 0-2-.8954305-2-2 0-6.0751322 4.92486775-11 11-11z" fill="#ff5364"/><path id="Shape" d="m28.08 35.9h-.01c-.7774244 1.2208051-1.1517096 2.6549819-1.07 4.1 0 3 3 5 3 5 0 3.8659932-3.1340068 7-7 7s-7-3.1340068-7-7c0 0 3-2 3-5 .0817096-1.4450181-.2925756-2.8791949-1.07-4.1z" fill="#f8c694"/><path id="Shape" d="m35 6.56v12.545c.0072306.4827784.3541892.8933531.829.981 2.0052879.4226666 3.3667589 2.2925302 3.1532557 4.3307262-.2135032 2.0381961-1.9329089 3.5853346-3.9822557 3.5832738 0 0-3 9-12 9s-12-9-12-9c-2.04934681.0020608-3.76875249-1.5450777-3.98225571-3.5832738-.21350323-2.038196 1.14796781-3.9080596 3.15325571-4.3307262.4748108-.0876469.8217694-.4982216.829-.981v-12.545z" fill="#fcd6ac"/><path id="Shape" d="m37 15.951s-13.974 1.79-13.974-8.951c0 10.741-13.974 8.951-13.974 8.951v-10.342h27.948z" fill="#e47e25"/><path id="Shape" d="m45 25h7c1.1045695 0 2 .8954305 2 2v3h-10v-4c0-.5522847.4477153-1 1-1z" fill="#bcc2c6"/><rect id="Rectangle-path" fill="#94a4a4" height="29" rx="4" width="20" x="39" y="29"/><rect id="Rectangle-path" fill="#464f5d" height="12" rx="1" transform="matrix(0 1 -1 0 92.5 -5.5)" width="21" x="38.5" y="37.5"/><path id="Shape" d="m51.707 43.293c-.3904999-.3903819-1.0235001-.3903819-1.414 0l-.293.293v-5.586c0-.5522847-.4477153-1-1-1s-1 .4477153-1 1v5.586l-.293-.293c-.3923789-.3789722-1.0160848-.3735524-1.4018186.0121814s-.3911536 1.0094397-.0121814 1.4018186l2 2c.3904999.3903819 1.0235001.3903819 1.414 0l2-2c.3903819-.3904999.3903819-1.0235001 0-1.414z" fill="#fff"/><path id="Shape" d="m55 49v4c0 .5522847-.4477153 1-1 1h-10c-.5522847 0-1-.4477153-1-1v-4z" fill="#e54c3c"/></g></g></svg>