<svg height="512" viewBox="0 0 58 59" width="512" xmlns="http://www.w3.org/2000/svg"><g id="Page-1" fill="none" fill-rule="evenodd"><g id="007---Wash-Hands" fill-rule="nonzero"><path id="Shape" d="m16.1 22.21c-.0634938-.4002713-.0969206-.8047358-.1-1.21 0-3.8659932 3.1340068-7 7-7 .8003239-.0005996 1.5949433.1346548 2.35.4.8955672-2.6328277 3.369026-4.40245682 6.15-4.4.6857099.0030579 1.366919.1109722 2.02.32 1.2337292-1.47369262 3.0580622-2.3235827 4.98-2.32.9438983-.00092268 1.8762643.20740817 2.73.61 1.9172339-1.68080804 4.6409284-2.0835091 6.9625203-1.02941584 2.3215919 1.05409325 3.8110542 3.36973184 3.8074797 5.91941584 2.4222051 1.0092521 4 3.3759445 4 6 .0006949.4063378-.0395077.8117139-.12 1.21 1.3308405 1.2094155 2.0986822 2.9178822 2.1195469 4.7160443.0208648 1.798162-.7071276 3.5239855-2.0095469 4.7639557.01-.06-38.99-.13-38.99-.19z" fill="#26b899"/><path id="Shape" d="m56 42c.0021256.3415766-.0588994.6806042-.18 1-.1420059.4231884-.3818333.8069121-.7 1.12-.5616324.5634227-1.3244649.8800702-2.12.88h-8.43l-1.66-.71c.3456145.1290213.711103.1967044 1.08.2 1.0677322.0024801 2.0554197-.5657262 2.59-1.49.0664163-.1011943.1233256-.2083177.17-.32.582567-1.3306137.1172323-2.8873698-1.1-3.68h7.35c1.6568542 0 3 1.3431458 3 3z" fill="#f8c694"/><path id="Shape" d="m52 48c0 1.6568542-1.3431458 3-3 3h-4.41c1.0156387-.1512688 1.8833524-.8114858 2.3-1.75.3070719-.7477224.3035015-1.5869908-.0099212-2.3320735-.3134227-.7450826-.9108531-1.3345409-1.6600788-1.6379265l-.65-.28h4.43c1.6568542 0 3 1.3431458 3 3z" fill="#f8c694"/><path id="Shape" d="m58 36c.0021256.3415766-.0588994.6806042-.18 1-.1420059.4231884-.3818333.8069121-.7 1.12-.5616324.5634227-1.3244649.8800702-2.12.88h-9.35c-.147843-.0989567-.30531-.1827157-.47-.25l-4.09-1.75-18.95-8.11 4.12-1.62c.7393606-.3004757 1.5687281-.2896579 2.3.03l3.46 1.48c.3771422.1570923.7814509.2386336 1.19.24 1.1997429.006327 2.2884371-.7011277 2.77-1.8.0310596-.0716606.0577746-.145127.08-.22h16.94c1.6568542 0 3 1.3431458 3 3 .0016589.0634976-.0016848.1270273-.01.19-.0126284.2764698-.066559.5494932-.16.81-.151867.420786-.3942353.8031134-.71 1.12-.5616324.5634227-1.3244649.8800702-2.12.88h2c1.6568542 0 3 1.3431458 3 3z" fill="#f8c694"/><path id="Shape" d="m28.56 27.3c-.7312719-.3196579-1.5606394-.3304757-2.3-.03l-4.12 1.62 22.45 22.11h4.41c1.6568542 0 3-1.3431458 3-3s-1.3431458-3-3-3h4c.7955351.0000702 1.5583676-.3165773 2.12-.88.3181667-.3130879.5579941-.6968116.7-1.12.1211006-.3193958.1821256-.6584234.18-1 0-1.6568542-1.3431458-3-3-3h2c.7955351.0000702 1.5583676-.3165773 2.12-.88.3181667-.3130879.5579941-.6968116.7-1.12.1211006-.3193958.1821256-.6584234.18-1 0-1.6568542-1.3431458-3-3-3h-2c.7955351.0000702 1.5583676-.3165773 2.12-.88.3157647-.3168866.558133-.699214.71-1.12.093441-.2605068.1473716-.5335302.16-.81.0083152-.0629727.0116589-.1265024.01-.19 0-1.6568542-1.3431458-3-3-3h-16.94z" fill="#f8c694"/><path id="Shape" d="m55.83 31c-.151867.420786-.3942353.8031134-.71 1.12-.5616324.5634227-1.3244649.8800702-2.12.88h-13c-.5522847 0-1-.4477153-1-1s.4477153-1 1-1z" fill="#cab191"/><path id="Shape" d="m57.82 37c-.1420059.4231884-.3818333.8069121-.7 1.12-.5616324.5634227-1.3244649.8800702-2.12.88h-15c-.5522847 0-1-.4477153-1-1s.4477153-1 1-1z" fill="#cab191"/><path id="Shape" d="m55.82 43c-.1420059.4231884-.3818333.8069121-.7 1.12-.5616324.5634227-1.3244649.8800702-2.12.88h-13c-.5522847 0-1-.4477153-1-1s.4477153-1 1-1z" fill="#cab191"/><path id="Shape" d="m46.89 49.25c-.1333745.306707-.3195304.5876331-.55.83-.4665183.4904655-1.081487.8137634-1.75.92-.1617254.0286095-.3257758.0420013-.49.04-.3192172-.0009379-.6363443-.0515433-.94-.15h-.01c-.1-.03-.21-.07-.31-.11l-2.37-1.02c1.4910554.6679912 2.1683768 2.4103114 1.52 3.91-.1347446.3036074-.3170324.5837907-.54.83-.5684392.6254613-1.3748237.9814328-2.22.98-.3023363.0024499-.6030168-.0448481-.89-.14h-.01c-.09-.03-.19-.07-.29-.11l-4.61-1.97c.7325033.3092137 1.3107524.8987745 1.6057189 1.6371301s.2821034 1.5640605-.0357189 2.2928699c-.4804093 1.1011963-1.5685752 1.8122362-2.77 1.81-.40521-.0023873-.8060507-.0839142-1.18-.24l-20.15-8.63c-.6985153-.2943825-1.35977249-.6703256-1.97-1.12l-7.29-5.32c-1.5056037-1.0921198-2.05026448-3.0836657-1.31-4.79l5.15-11.9c.46544198-1.0610085 1.3655239-1.869989 2.47-2.22l8.15-2.57 5.52-1.74c.5890725-.1890847 1.1953299-.3197147 1.81-.39h.01c1.7641127-.219603 3.5549131.0322823 5.19.73l5.1 2.19.67.29c1.4457473.6047585 2.172514 2.2290384 1.66 3.71-.0222254.074873-.0489404.1483394-.08.22-.4815629 1.0988723-1.5702571 1.806327-2.77 1.8-.4085491-.0013664-.8128578-.0829077-1.19-.24l-3.46-1.48c-.7312719-.3196579-1.5606394-.3304757-2.3-.03l-1.45.57-2.65 1.04-.02.01 23.04 9.86c.16469.0672843.322157.1510433.47.25 1.2172323.7926302 1.682567 2.3493863 1.1 3.68-.1357358.3084255-.3215802.5922605-.55.84-.5694021.6170425-1.3703821.9686039-2.21.97-.312674-.000978-.6232086-.0516087-.92-.15l-.04-.01c-.0413734-.0087915-.0816264-.0222092-.12-.04l1.66.71.65.28c.7492257.3033856 1.3466561.8928439 1.6600788 1.6379265.3134227.7450827.3169931 1.5843511.0099212 2.3320735z" fill="#fcd6ac"/><path id="Shape" d="m10 11c-.55228475 0-1-.4477153-1-1v-1c0-.55228475.44771525-1 1-1 .5522847 0 1 .44771525 1 1v1c0 .5522847-.4477153 1-1 1z" fill="#b399c9"/><path id="Shape" d="m10 16c-.55228475 0-1-.4477153-1-1v-1c0-.5522847.44771525-1 1-1 .5522847 0 1 .4477153 1 1v1c0 .5522847-.4477153 1-1 1z" fill="#b399c9"/><path id="Shape" d="m8 13h-1c-.55228475 0-1-.4477153-1-1s.44771525-1 1-1h1c.55228475 0 1 .4477153 1 1s-.44771525 1-1 1z" fill="#b399c9"/><path id="Shape" d="m13 13h-1c-.5522847 0-1-.4477153-1-1s.4477153-1 1-1h1c.5522847 0 1 .4477153 1 1s-.4477153 1-1 1z" fill="#b399c9"/><g fill="#945ba4"><path id="Shape" d="m25 3c-.5522847 0-1-.44771525-1-1v-1c0-.55228475.4477153-1 1-1s1 .44771525 1 1v1c0 .55228475-.4477153 1-1 1z"/><path id="Shape" d="m25 8c-.5522847 0-1-.44771525-1-1v-1c0-.55228475.4477153-1 1-1s1 .44771525 1 1v1c0 .55228475-.4477153 1-1 1z"/><path id="Shape" d="m23 5h-1c-.5522847 0-1-.44771525-1-1s.4477153-1 1-1h1c.5522847 0 1 .44771525 1 1s-.4477153 1-1 1z"/><path id="Shape" d="m28 5h-1c-.5522847 0-1-.44771525-1-1s.4477153-1 1-1h1c.5522847 0 1 .44771525 1 1s-.4477153 1-1 1z"/><path id="Shape" d="m11 35c-.5522847 0-1-.4477153-1-1v-1c0-.5522847.4477153-1 1-1s1 .4477153 1 1v1c0 .5522847-.4477153 1-1 1z"/><path id="Shape" d="m11 40c-.5522847 0-1-.4477153-1-1v-1c0-.5522847.4477153-1 1-1s1 .4477153 1 1v1c0 .5522847-.4477153 1-1 1z"/><path id="Shape" d="m9 37h-1c-.55228475 0-1-.4477153-1-1s.44771525-1 1-1h1c.55228475 0 1 .4477153 1 1s-.44771525 1-1 1z"/><path id="Shape" d="m14 37h-1c-.5522847 0-1-.4477153-1-1s.4477153-1 1-1h1c.5522847 0 1 .4477153 1 1s-.4477153 1-1 1z"/></g><path id="Shape" d="m51 23c-.5522847 0-1-.4477153-1-1 0-1.6568542-1.3431458-3-3-3-.5522847 0-1-.4477153-1-1s.4477153-1 1-1c2.7600532.0033061 4.9966939 2.2399468 5 5 0 .5522847-.4477153 1-1 1z" fill="#fff"/><path id="Shape" d="m40 15.04c-.4132264.0001625-.7839936-.2538588-.9330602-.6392615-.1490667-.3854026-.0457274-.8227996.2600602-1.1007385 1.0216476-.9231796 2.3768632-1.3875668 3.75-1.285.5472316.046601.9544709.5258145.9121803 1.0733961-.0422907.5475815-.5182827.9585816-1.0661803.9206039-.824793-.0687528-1.6407156.2108367-2.25.771-.1841645.1673923-.4241291.2600978-.673.26z" fill="#fff"/><path id="Shape" d="m40 20c0 1.6568542-1.3431458 3-3 3h-3.27l-5.1-2.19c-1.6350869-.6977177-3.4258873-.949603-5.19-.73l.74-.64c1.8198639-1.5728622 4.1446313-2.4388824 6.55-2.44h6.27c1.6568542 0 3 1.3431458 3 3z" fill="#f8c694"/><path id="Shape" d="m41.45 54.5c-.5684392.6254613-1.3748237.9814328-2.22.98-.3023363.0024499-.6030168-.0448481-.89-.14h-.01l-18.19-7.78c-.5107814-.2182327-.7480378-.8091354-.53-1.32.1042042-.2431456.3010306-.4347249.5469024-.5323228.2458718-.097598.5205053-.0931631.7630976.0123228z" fill="#cab191"/><path id="Shape" d="m46.34 50.08c-.4665183.4904655-1.081487.8137634-1.75.92-.1617254.0286095-.3257758.0420013-.49.04-.3192172-.0009379-.6363443-.0515433-.94-.15h-.01l-18.79-8.04c-.3364726-.132957-.5742613-.438073-.6210007-.7968303s.104937-.7146133.3961127-.9293412.6759595-.2544851 1.004888-.1038285z" fill="#cab191"/><path id="Shape" d="m46.2 43.52c-.5694021.6170425-1.3703821.9686039-2.21.97-.312674-.000978-.6232086-.0516087-.92-.15l-.04-.01-16.29-6.98c-.3364726-.132957-.5742613-.438073-.6210007-.7968303s.104937-.7146133.3961127-.9293412.6759595-.2544851 1.004888-.1038285z" fill="#cab191"/><path id="Shape" d="m24.81 27.84-2.65 1.04-2.25-.96c-.4861182-.2286704-.7047041-.800567-.4950326-1.2951769.2096716-.4946098.7726733-.7351812 1.2750326-.5448231z" fill="#cab191"/></g></g></svg>